{
    "asset" : {
        "copyright" : "Comai",
        "generator" : "Khronos glTF Blender I/O v1.7.33",
        "version" : "2.0"
    },
    "extensionsUsed" : [
        "KHR_texture_transform"
    ],
    "extensionsRequired" : [
        "KHR_texture_transform"
    ],
    "scene" : 0,
    "scenes" : [
        {
            "name" : "Scene",
            "nodes" : [
                0
            ]
        }
    ],
    "nodes" : [
        {
            "mesh" : 0,
            "name" : "add_leg008",
            "rotation" : [
                -0.7071128487586975,
                -0.7071006894111633,
                0,
                5.3384617615392926e-08
            ],
            "scale" : [
                0.010434783063828945,
                0.010000035166740417,
                0.0074999951757490635
            ]
        }
    ],
    "materials" : [
        {
            "doubleSided" : true,
            "name" : "black metal paint.023",
            "pbrMetallicRoughness" : {
                "baseColorFactor" : [
                    0.006554560270160437,
                    0.006554560270160437,
                    0.006554560270160437,
                    1
                ],
                "metallicFactor" : 0.800000011920929,
                "roughnessFactor" : 0.2889908254146576
            }
        },
        {
            "doubleSided" : true,
            "name" : "Material.023",
            "pbrMetallicRoughness" : {
                "baseColorFactor" : [
                    0,
                    0,
                    0,
                    1
                ],
                "metallicFactor" : 0,
                "roughnessFactor" : 0.5
            }
        },
        {
            "doubleSided" : true,
            "name" : "light ash.002",
            "pbrMetallicRoughness" : {
                "baseColorFactor" : [
                    0.8470588326454163,
                    0.8470588326454163,
                    0.8470588326454163,
                    1
                ],
                "baseColorTexture" : {
                    "extensions" : {
                        "KHR_texture_transform" : {
                            "offset" : [
                                -1.999999999999998,
                                1.00000008742278
                            ],
                            "rotation" : 1.5707963705062866,
                            "scale" : [
                                5,
                                2
                            ]
                        }
                    },
                    "index" : 0
                },
                "metallicFactor" : 0,
                "roughnessFactor" : 0.5
            }
        },
        {
            "doubleSided" : true,
            "name" : "black metal paint.005",
            "pbrMetallicRoughness" : {
                "baseColorFactor" : [
                    0.006554560270160437,
                    0.006554560270160437,
                    0.006554560270160437,
                    1
                ],
                "metallicFactor" : 0.800000011920929,
                "roughnessFactor" : 0.2889908254146576
            }
        }
    ],
    "meshes" : [
        {
            "name" : "Mesh_0",
            "primitives" : [
                {
                    "attributes" : {
                        "POSITION" : 0,
                        "NORMAL" : 1,
                        "TEXCOORD_0" : 2
                    },
                    "indices" : 3,
                    "material" : 0
                },
                {
                    "attributes" : {
                        "POSITION" : 4,
                        "NORMAL" : 5,
                        "TEXCOORD_0" : 6
                    },
                    "indices" : 7,
                    "material" : 1
                },
                {
                    "attributes" : {
                        "POSITION" : 8,
                        "NORMAL" : 9,
                        "TEXCOORD_0" : 10
                    },
                    "indices" : 11,
                    "material" : 2
                },
                {
                    "attributes" : {
                        "POSITION" : 12,
                        "NORMAL" : 13,
                        "TEXCOORD_0" : 14
                    },
                    "indices" : 15,
                    "material" : 3
                }
            ]
        }
    ],
    "textures" : [
        {
            "sampler" : 0,
            "source" : 0
        }
    ],
    "images" : [
        {
            "bufferView" : 12,
            "mimeType" : "image/png",
            "name" : "Image_0"
        }
    ],
    "accessors" : [
        {
            "bufferView" : 0,
            "componentType" : 5126,
            "count" : 65,
            "max" : [
                67.17329406738281,
                86.09523010253906,
                -6.493202209472656
            ],
            "min" : [
                -1.8267147541046143,
                82.88723754882812,
                -66.49323272705078
            ],
            "type" : "VEC3"
        },
        {
            "bufferView" : 1,
            "componentType" : 5126,
            "count" : 65,
            "type" : "VEC3"
        },
        {
            "bufferView" : 2,
            "componentType" : 5126,
            "count" : 65,
            "type" : "VEC2"
        },
        {
            "bufferView" : 3,
            "componentType" : 5123,
            "count" : 96,
            "type" : "SCALAR"
        },
        {
            "bufferView" : 4,
            "componentType" : 5126,
            "count" : 24,
            "max" : [
                66.51226806640625,
                86.46647644042969,
                -6.149078369140625
            ],
            "min" : [
                23.38726043701172,
                -93.53289031982422,
                -8.815750122070312
            ],
            "type" : "VEC3"
        },
        {
            "bufferView" : 5,
            "componentType" : 5126,
            "count" : 24,
            "type" : "VEC3"
        },
        {
            "bufferView" : 6,
            "componentType" : 5126,
            "count" : 24,
            "type" : "VEC2"
        },
        {
            "bufferView" : 7,
            "componentType" : 5123,
            "count" : 36,
            "type" : "SCALAR"
        },
        {
            "bufferView" : 8,
            "componentType" : 5126,
            "count" : 24,
            "max" : [
                69.30162811279297,
                86.28488159179688,
                -6.493259429931641
            ],
            "min" : [
                66.42662811279297,
                -93.7144775390625,
                -66.51563262939453
            ],
            "type" : "VEC3"
        },
        {
            "bufferView" : 9,
            "componentType" : 5126,
            "count" : 24,
            "type" : "VEC3"
        },
        {
            "bufferView" : 10,
            "componentType" : 5126,
            "count" : 24,
            "type" : "VEC2"
        },
        {
            "bufferView" : 11,
            "componentType" : 5123,
            "count" : 36,
            "type" : "SCALAR"
        },
        {
            "bufferView" : 13,
            "componentType" : 5126,
            "count" : 66,
            "max" : [
                67.17037963867188,
                -91.12631225585938,
                -6.4931793212890625
            ],
            "min" : [
                -1.8296291828155518,
                -93.72630310058594,
                -66.49320983886719
            ],
            "type" : "VEC3"
        },
        {
            "bufferView" : 14,
            "componentType" : 5126,
            "count" : 66,
            "type" : "VEC3"
        },
        {
            "bufferView" : 15,
            "componentType" : 5126,
            "count" : 66,
            "type" : "VEC2"
        },
        {
            "bufferView" : 16,
            "componentType" : 5123,
            "count" : 90,
            "type" : "SCALAR"
        }
    ],
    "bufferViews" : [
        {
            "buffer" : 0,
            "byteLength" : 780,
            "byteOffset" : 0
        },
        {
            "buffer" : 0,
            "byteLength" : 780,
            "byteOffset" : 780
        },
        {
            "buffer" : 0,
            "byteLength" : 520,
            "byteOffset" : 1560
        },
        {
            "buffer" : 0,
            "byteLength" : 192,
            "byteOffset" : 2080
        },
        {
            "buffer" : 0,
            "byteLength" : 288,
            "byteOffset" : 2272
        },
        {
            "buffer" : 0,
            "byteLength" : 288,
            "byteOffset" : 2560
        },
        {
            "buffer" : 0,
            "byteLength" : 192,
            "byteOffset" : 2848
        },
        {
            "buffer" : 0,
            "byteLength" : 72,
            "byteOffset" : 3040
        },
        {
            "buffer" : 0,
            "byteLength" : 288,
            "byteOffset" : 3112
        },
        {
            "buffer" : 0,
            "byteLength" : 288,
            "byteOffset" : 3400
        },
        {
            "buffer" : 0,
            "byteLength" : 192,
            "byteOffset" : 3688
        },
        {
            "buffer" : 0,
            "byteLength" : 72,
            "byteOffset" : 3880
        },
        {
            "buffer" : 0,
            "byteLength" : 770816,
            "byteOffset" : 3952
        },
        {
            "buffer" : 0,
            "byteLength" : 792,
            "byteOffset" : 774768
        },
        {
            "buffer" : 0,
            "byteLength" : 792,
            "byteOffset" : 775560
        },
        {
            "buffer" : 0,
            "byteLength" : 528,
            "byteOffset" : 776352
        },
        {
            "buffer" : 0,
            "byteLength" : 180,
            "byteOffset" : 776880
        }
    ],
    "samplers" : [
        {
            "magFilter" : 9729,
            "minFilter" : 9987
        }
    ],
    "buffers" : [
        {
            "byteLength" : 777060,
            "uri" : "data:application/octet-stream;base64,"
        }
    ]
}
